<svg version="1.0" xmlns="http://www.w3.org/2000/svg" width="23.867" height="23.867"><path fill="#FFF" d="M15.087 11.933l8.56-8.559a.7502.7502 0 000-1.061L21.554.22a.7474.7474 0 00-.531-.22c-.199 0-.391.079-.529.22l-8.561 8.56L3.373.22c-.282-.282-.78-.282-1.061 0L.22 2.313a.7502.7502 0 000 1.061l8.56 8.559-8.56 8.559c-.293.293-.293.768 0 1.062l2.093 2.094c.141.142.331.22.53.22s.39-.078.53-.22l8.561-8.56 8.56 8.56c.141.142.332.22.53.22.199 0 .39-.078.53-.22l2.093-2.094c.293-.294.293-.769 0-1.062l-8.56-8.559z"/></svg>