<svg version="1.0" xmlns="http://www.w3.org/2000/svg" width="12.545" height="11.99" viewBox="521.939 473.064 12.545 11.99" fill="#d22856"><path d="M528.174 485.055a.7366.7366 0 01-.552-.249c-3.798-4.324-4.644-5.298-4.858-5.572h-.004c-.529-.675-.821-1.518-.821-2.373 0-2.095 1.704-3.799 3.799-3.799.934 0 1.804.32 2.484.898.696-.578 1.56-.898 2.463-.898 2.095 0 3.799 1.704 3.799 3.799 0 .909-.318 1.754-.896 2.381l-4.86 5.561a.7347.7347 0 01-.554.252zm-4.245-6.706c.208.255 2.471 2.839 4.243 4.858l4.323-4.944c.34-.369.52-.86.52-1.399 0-1.285-1.045-2.331-2.33-2.331-.729 0-1.421.344-1.9.943-.142.178-.353.267-.585.275a.727.727 0 01-.575-.294c-.441-.587-1.129-.925-1.887-.925-1.285 0-2.33 1.046-2.33 2.331 0 .678.275 1.171.507 1.467.004.006.01.012.014.019z"/></svg>